<?xml version="1.0" standalone="no"?>
<!DOCTYPE svg PUBLIC "-//W3C//DTD SVG 20010904//EN"
 "http://www.w3.org/TR/2001/REC-SVG-20010904/DTD/svg10.dtd">
<svg version="1.0" xmlns="http://www.w3.org/2000/svg"
 width="410.000000pt" height="410.000000pt" viewBox="0 0 410.000000 410.000000"
 preserveAspectRatio="xMidYMid meet">
<metadata>
Created by potrace 1.11, written by Peter Selinger 2001-2013
</metadata>
<g transform="translate(0.000000,410.000000) scale(0.100000,-0.100000)"
fill="#000000" stroke="none">
<path d="M1649 2768 c-135 -12 -247 -65 -330 -155 -40 -43 -43 -45 -56 -27
-36 52 -106 109 -172 142 -75 37 -75 37 -205 37 -158 0 -215 -18 -300 -96
l-55 -50 1 56 c1 30 -1 58 -5 61 -3 4 -69 7 -147 8 -134 1 -140 0 -141 -19 0
-27 0 -1274 0 -1302 1 -23 2 -23 161 -23 l160 0 1 378 c1 404 1 417 20 505 25
122 96 185 219 192 123 7 211 -39 250 -131 29 -67 33 -134 33 -556 l0 -388
162 0 161 0 0 363 c0 384 4 461 29 545 33 110 127 172 255 167 114 -4 186 -57
215 -160 23 -76 24 -99 24 -527 l1 -388 160 0 161 0 -1 444 c-2 494 -7 549
-70 680 -85 176 -283 267 -531 244z"/>
<path d="M3080 2769 c-181 -13 -312 -78 -442 -218 -122 -131 -181 -285 -181
-471 0 -60 7 -137 16 -179 50 -225 225 -421 444 -498 70 -25 91 -28 213 -28
115 1 144 4 199 23 66 24 155 76 191 112 l20 20 0 -290 0 -290 160 0 160 0 0
333 c1 1147 1 1450 -4 1454 -4 4 -208 7 -271 4 -19 -1 -20 -7 -19 -81 1 -59
-1 -78 -10 -71 -6 5 -33 30 -60 56 -100 93 -244 136 -416 124z m230 -315 c159
-61 253 -217 246 -408 -6 -137 -64 -246 -172 -318 -69 -47 -119 -61 -209 -61
-90 1 -117 7 -181 38 -128 63 -208 197 -213 355 -6 203 125 374 312 409 63 12
167 5 217 -15z"/>
</g>
</svg>
